<svg width="32" height="33" viewBox="0 0 32 33" fill="none" xmlns="http://www.w3.org/2000/svg">
<g clip-path="url(#clip0_285_967)">
<path d="M12 26.2583C5.33335 28.2583 5.33335 22.925 2.66669 22.2583M21.3334 30.2583V25.0983C21.3834 24.4625 21.2975 23.8234 21.0814 23.2234C20.8653 22.6234 20.5239 22.0762 20.08 21.6183C24.2667 21.1517 28.6667 19.565 28.6667 12.285C28.6663 10.4234 27.9503 8.63327 26.6667 7.285C27.2745 5.65634 27.2315 3.85613 26.5467 2.25833C26.5467 2.25833 24.9734 1.79167 21.3334 4.23167C18.2774 3.40343 15.056 3.40343 12 4.23167C8.36002 1.79167 6.78669 2.25833 6.78669 2.25833C6.10186 3.85613 6.05888 5.65634 6.66669 7.285C5.37352 8.64327 4.65672 10.4496 4.66669 12.325C4.66669 19.5517 9.06669 21.1383 13.2534 21.6583C12.8147 22.1116 12.4764 22.6522 12.2604 23.2449C12.0445 23.8376 11.9558 24.4691 12 25.0983V30.2583" stroke="#F67D1F" stroke-width="2.5" stroke-linecap="round" stroke-linejoin="round"/>
</g>
<defs>
<clipPath id="clip0_285_967">
<rect width="32" height="32" fill="white" transform="translate(0 0.925003)"/>
</clipPath>
</defs>
</svg>
