<svg width="32" height="33" viewBox="0 0 32 33" fill="none" xmlns="http://www.w3.org/2000/svg">
<path d="M8.00002 12.925H2.66669V28.925H8.00002V12.925Z" stroke="#F67D1F" stroke-width="2.2" stroke-linecap="round" stroke-linejoin="round"/>
<path d="M21.3333 11.5917C23.455 11.5917 25.4899 12.4345 26.9902 13.9348C28.4905 15.4351 29.3333 17.4699 29.3333 19.5917V28.925H24V19.5917C24 18.8844 23.719 18.2062 23.2189 17.7061C22.7188 17.206 22.0406 16.925 21.3333 16.925C20.6261 16.925 19.9478 17.206 19.4477 17.7061C18.9476 18.2062 18.6666 18.8844 18.6666 19.5917V28.925H13.3333V19.5917C13.3333 17.4699 14.1762 15.4351 15.6765 13.9348C17.1768 12.4345 19.2116 11.5917 21.3333 11.5917V11.5917Z" stroke="#F67D1F" stroke-width="2.2" stroke-linecap="round" stroke-linejoin="round"/>
<path d="M5.33335 8.92501C6.80611 8.92501 8.00002 7.7311 8.00002 6.25834C8.00002 4.78558 6.80611 3.59167 5.33335 3.59167C3.86059 3.59167 2.66669 4.78558 2.66669 6.25834C2.66669 7.7311 3.86059 8.92501 5.33335 8.92501Z" stroke="#F67D1F" stroke-width="2.2" stroke-linecap="round" stroke-linejoin="round"/>
</svg>
