<svg width="144" height="28" viewBox="0 0 144 28" fill="none" xmlns="http://www.w3.org/2000/svg">
<path d="M1.77891 8.00355V5.08771H15.5168V8.00355H10.3957L3.49574 21.815H0L6.9 8.00355H1.77891Z" fill="#F67D1F"/>
<path d="M17.7435 22.4452C16.453 22.4452 15.3422 22.1839 14.4111 21.6611C13.4855 21.133 12.7722 20.387 12.2712 19.4232C11.7703 18.454 11.5198 17.3078 11.5198 15.9846C11.5198 14.6942 11.7703 13.5616 12.2712 12.5869C12.7722 11.6122 13.4773 10.8527 14.3866 10.3081C15.3014 9.76364 16.3741 9.49139 17.6047 9.49139C18.4323 9.49139 19.2028 9.62479 19.9161 9.8916C20.6349 10.153 21.261 10.5477 21.7947 11.0759C22.3337 11.6041 22.753 12.2684 23.0525 13.0688C23.3519 13.8638 23.5017 14.7949 23.5017 15.8621V16.8177H12.9083V14.6615H20.2265C20.2265 14.1605 20.1176 13.7168 19.8998 13.3302C19.682 12.9436 19.3798 12.6414 18.9932 12.4236C18.612 12.2003 18.1682 12.0887 17.6618 12.0887C17.1337 12.0887 16.6654 12.2112 16.257 12.4562C15.8541 12.6958 15.5383 13.0198 15.3096 13.4282C15.0809 13.8311 14.9638 14.2803 14.9584 14.7758V16.8259C14.9584 17.4466 15.0727 17.983 15.3014 18.4349C15.5355 18.8869 15.865 19.2354 16.2897 19.4804C16.7144 19.7254 17.2181 19.8479 17.8007 19.8479C18.1873 19.8479 18.5412 19.7935 18.8625 19.6846C19.1837 19.5757 19.4587 19.4123 19.6874 19.1945C19.9161 18.9767 20.0903 18.7099 20.2101 18.3941L23.4282 18.6064C23.2648 19.3796 22.93 20.0548 22.4236 20.632C21.9226 21.2037 21.2747 21.6502 20.4797 21.9715C19.6901 22.2873 18.7781 22.4452 17.7435 22.4452ZM31.4406 22.4452C30.1556 22.4452 29.0502 22.173 28.1246 21.6285C27.2043 21.0785 26.4965 20.3162 26.001 19.3415C25.5109 18.3669 25.2659 17.2452 25.2659 15.9765C25.2659 14.6914 25.5136 13.5643 26.0091 12.5951C26.5101 11.6204 27.2207 10.8608 28.1409 10.3163C29.0611 9.76636 30.1556 9.49139 31.4243 9.49139C32.5187 9.49139 33.4771 9.69013 34.2993 10.0876C35.1215 10.4851 35.7722 11.0432 36.2513 11.762C36.7305 12.4807 36.9946 13.3247 37.0436 14.2939H33.7602C33.6676 13.6678 33.4226 13.1641 33.0251 12.7829C32.6331 12.3963 32.1185 12.203 31.4814 12.203C30.9424 12.203 30.4714 12.3501 30.0684 12.6441C29.671 12.9327 29.3606 13.3547 29.1373 13.9101C28.9141 14.4655 28.8025 15.1379 28.8025 15.9275C28.8025 16.7279 28.9114 17.4085 29.1292 17.9694C29.3524 18.5302 29.6655 18.9577 30.0684 19.2517C30.4714 19.5457 30.9424 19.6927 31.4814 19.6927C31.8789 19.6927 32.2356 19.6111 32.5514 19.4477C32.8727 19.2844 33.1367 19.0475 33.3437 18.7371C33.556 18.4213 33.6949 18.0429 33.7602 17.6018H37.0436C36.9891 18.5602 36.7278 19.4041 36.2595 20.1338C35.7967 20.858 35.1569 21.4243 34.3401 21.8327C33.5233 22.241 32.5568 22.4452 31.4406 22.4452ZM42.7507 14.9474V22.2002H39.2713V5.47292H42.6527V11.8682H42.7997C43.0829 11.1276 43.5402 10.5477 44.1719 10.1285C44.8035 9.70375 45.5958 9.49139 46.5487 9.49139C47.4199 9.49139 48.1795 9.68197 48.8274 10.0631C49.4808 10.4388 49.9872 10.9806 50.3466 11.6885C50.7114 12.3909 50.8911 13.2322 50.8857 14.2123V22.2002H47.4062V14.833C47.4117 14.0598 47.2157 13.4581 46.8182 13.028C46.4261 12.5978 45.8762 12.3827 45.1683 12.3827C44.6946 12.3827 44.2753 12.4835 43.9105 12.6849C43.5511 12.8864 43.268 13.1804 43.0611 13.567C42.8596 13.9482 42.7562 14.4083 42.7507 14.9474ZM53.6238 22.2002V9.65474H57.1032V22.2002H53.6238ZM55.3717 8.03755C54.8544 8.03755 54.4107 7.86603 54.0404 7.52299C53.6756 7.17451 53.4932 6.75796 53.4932 6.27335C53.4932 5.79418 53.6756 5.38308 54.0404 5.04004C54.4107 4.69155 54.8544 4.51731 55.3717 4.51731C55.889 4.51731 56.33 4.69155 56.6949 5.04004C57.0651 5.38308 57.2503 5.79418 57.2503 6.27335C57.2503 6.75796 57.0651 7.17451 56.6949 7.52299C56.33 7.86603 55.889 8.03755 55.3717 8.03755ZM65.6078 22.4452C64.3173 22.4452 63.2065 22.1839 62.2754 21.6611C61.3497 21.133 60.6364 20.387 60.1355 19.4232C59.6345 18.454 59.3841 17.3078 59.3841 15.9846C59.3841 14.6942 59.6345 13.5616 60.1355 12.5869C60.6364 11.6122 61.3416 10.8527 62.2509 10.3081C63.1657 9.76364 64.2383 9.49139 65.4689 9.49139C66.2966 9.49139 67.0671 9.62479 67.7804 9.8916C68.4991 10.153 69.1253 10.5477 69.6589 11.0759C70.198 11.6041 70.6172 12.2684 70.9167 13.0688C71.2162 13.8638 71.3659 14.7949 71.3659 15.8621V16.8177H60.7725V14.6615H68.0907C68.0907 14.1605 67.9818 13.7168 67.764 13.3302C67.5462 12.9436 67.244 12.6414 66.8574 12.4236C66.4763 12.2003 66.0325 12.0887 65.5261 12.0887C64.9979 12.0887 64.5297 12.2112 64.1213 12.4562C63.7183 12.6958 63.4025 13.0198 63.1738 13.4282C62.9451 13.8311 62.8281 14.2803 62.8226 14.7758V16.8259C62.8226 17.4466 62.937 17.983 63.1657 18.4349C63.3998 18.8869 63.7292 19.2354 64.1539 19.4804C64.5787 19.7254 65.0823 19.8479 65.665 19.8479C66.0516 19.8479 66.4055 19.7935 66.7267 19.6846C67.048 19.5757 67.323 19.4123 67.5517 19.1945C67.7804 18.9767 67.9546 18.7099 68.0744 18.3941L71.2924 18.6064C71.1291 19.3796 70.7942 20.0548 70.2878 20.632C69.7869 21.2037 69.1389 21.6502 68.3439 21.9715C67.5544 22.2873 66.6423 22.4452 65.6078 22.4452Z" fill="#131211"/>
<path d="M85.3877 9.54333L93.7252 14.014L93.7252 18.0102L85.3877 22.4808L85.3877 18.7345L91.3531 16.0787V15.9455L85.3877 13.298L85.3877 9.54333Z" fill="#F67D1F"/>
<rect x="81.9375" y="5.51837" width="3.45" height="16.9625" fill="#F67D1F"/>
<path d="M98.691 22.2372C97.8906 22.2372 97.1773 22.0984 96.5511 21.8207C95.9249 21.5375 95.4294 21.121 95.0646 20.571C94.7052 20.0156 94.5255 19.3241 94.5255 18.4965C94.5255 17.7995 94.6535 17.2141 94.9094 16.7404C95.1653 16.2667 95.5138 15.8855 95.9549 15.597C96.3959 15.3084 96.8969 15.0906 97.4577 14.9435C98.024 14.7965 98.6175 14.6931 99.2382 14.6332C99.9679 14.5569 100.556 14.4862 101.002 14.4208C101.449 14.35 101.773 14.2466 101.974 14.1105C102.176 13.9743 102.277 13.7729 102.277 13.506V13.457C102.277 12.9398 102.113 12.5395 101.787 12.2564C101.465 11.9733 101.008 11.8317 100.414 11.8317C99.7882 11.8317 99.29 11.9705 98.9197 12.2482C98.5494 12.5205 98.3044 12.8635 98.1846 13.2774L94.9666 13.016C95.1299 12.2537 95.4512 11.5948 95.9304 11.0394C96.4095 10.4786 97.0275 10.0484 97.7844 9.74894C98.5467 9.44402 99.4288 9.29156 100.431 9.29156C101.128 9.29156 101.795 9.37324 102.432 9.53659C103.074 9.69994 103.643 9.95314 104.139 10.2962C104.64 10.6392 105.035 11.0803 105.323 11.6193C105.612 12.1529 105.756 12.7927 105.756 13.5387V22.0004H102.456V20.2607H102.358C102.157 20.6527 101.887 20.9985 101.55 21.298C101.212 21.592 100.806 21.8234 100.333 21.9922C99.859 22.1556 99.3117 22.2372 98.691 22.2372ZM99.6875 19.8359C100.199 19.8359 100.651 19.7352 101.043 19.5337C101.435 19.3268 101.743 19.0491 101.966 18.7007C102.189 18.3522 102.301 17.9574 102.301 17.5163V16.185C102.192 16.2558 102.042 16.3212 101.852 16.381C101.667 16.4355 101.457 16.4872 101.223 16.5362C100.989 16.5798 100.755 16.6206 100.521 16.6587C100.286 16.6914 100.074 16.7214 99.8835 16.7486C99.4751 16.8085 99.1184 16.9038 98.8135 17.0345C98.5086 17.1651 98.2717 17.3421 98.1029 17.5654C97.9341 17.7832 97.8497 18.0554 97.8497 18.3821C97.8497 18.8558 98.0213 19.2179 98.3643 19.4684C98.7128 19.7134 99.1538 19.8359 99.6875 19.8359Z" fill="#131211"/>
<path d="M118.363 22.4808L111.175 18.4075L111.175 14.7666L118.363 10.6933L118.363 14.1067L113.22 16.5264L113.22 16.6478L118.363 19.0599L118.363 22.4808Z" fill="#F67D1F"/>
<rect x="107.725" y="5.51837" width="3.45" height="16.9625" fill="#F67D1F"/>
<path d="M126.619 22.2452C125.328 22.2452 124.217 21.9838 123.286 21.4611C122.36 20.9329 121.647 20.187 121.146 19.2232C120.645 18.254 120.395 17.1078 120.395 15.7846C120.395 14.4941 120.645 13.3616 121.146 12.3869C121.647 11.4122 122.352 10.6526 123.262 10.1081C124.176 9.56363 125.249 9.29138 126.48 9.29138C127.307 9.29138 128.078 9.42478 128.791 9.69159C129.51 9.95295 130.136 10.3477 130.67 10.8759C131.209 11.4041 131.628 12.0684 131.927 12.8688C132.227 13.6638 132.377 14.5949 132.377 15.6621V16.6177H121.783V14.4615H129.101C129.101 13.9605 128.993 13.5168 128.775 13.1302C128.557 12.7436 128.255 12.4414 127.868 12.2235C127.487 12.0003 127.043 11.8887 126.537 11.8887C126.009 11.8887 125.54 12.0112 125.132 12.2562C124.729 12.4958 124.413 12.8198 124.185 13.2282C123.956 13.6311 123.839 14.0803 123.833 14.5758V16.6259C123.833 17.2466 123.948 17.783 124.176 18.2349C124.411 18.6869 124.74 19.0353 125.165 19.2804C125.589 19.5254 126.093 19.6479 126.676 19.6479C127.062 19.6479 127.416 19.5935 127.737 19.4846C128.059 19.3757 128.334 19.2123 128.562 18.9945C128.791 18.7767 128.965 18.5099 129.085 18.1941L132.303 18.4064C132.14 19.1796 131.805 19.8548 131.299 20.432C130.798 21.0037 130.15 21.4502 129.355 21.7715C128.565 22.0873 127.653 22.2452 126.619 22.2452Z" fill="#131211"/>
<path d="M134.901 22.0002V9.45473H138.274V11.6436H138.405C138.634 10.865 139.018 10.2769 139.557 9.87944C140.096 9.47651 140.717 9.27504 141.419 9.27504C141.593 9.27504 141.781 9.28593 141.983 9.30771C142.184 9.32949 142.361 9.35944 142.513 9.39755V12.4849C142.35 12.4359 142.124 12.3923 141.835 12.3542C141.547 12.3161 141.283 12.2971 141.043 12.2971C140.531 12.2971 140.074 12.4087 139.671 12.6319C139.274 12.8497 138.958 13.1547 138.724 13.5467C138.495 13.9387 138.381 14.3907 138.381 14.9025V22.0002H134.901Z" fill="#131211"/>
</svg>
