<svg width="32" height="33" viewBox="0 0 32 33" fill="none" xmlns="http://www.w3.org/2000/svg">
<path d="M30.6666 4.925C29.3898 5.82563 27.9761 6.51448 26.48 6.965C25.677 6.04168 24.6098 5.38725 23.4227 5.09023C22.2356 4.79321 20.986 4.86793 19.8428 5.30427C18.6995 5.74061 17.7179 6.51753 17.0306 7.52995C16.3433 8.54237 15.9836 9.74145 16 10.965V12.2983C13.6568 12.3591 11.335 11.8394 9.24132 10.7856C7.14764 9.73177 5.34707 8.17651 3.99998 6.25833C3.99998 6.25833 -1.33335 18.2583 10.6666 23.5917C7.92068 25.4556 4.64952 26.3902 1.33331 26.2583C13.3333 32.925 28 26.2583 28 10.925C27.9988 10.5536 27.963 10.1831 27.8933 9.81833C29.2541 8.47632 30.2144 6.78195 30.6666 4.925V4.925Z" stroke="#F67D1F" stroke-width="2.5" stroke-linecap="round" stroke-linejoin="round"/>
</svg>
